<svg xmlns="http://www.w3.org/2000/svg" width="876" height="986" viewBox="0 0 876 986" font-family="'Consolas','Courier New',monospace"><rect width="876" height="986" fill="#0b2545"/><rect x="22" y="22" width="832" height="942" fill="none" stroke="#dbeafe" stroke-width="2"/><rect x="30" y="30" width="816" height="926" fill="none" stroke="#dbeafe" stroke-width="1" opacity="0.5"/><circle cx="70" cy="70" r="1.1" fill="#1d3b66"/><circle cx="116" cy="70" r="1.1" fill="#1d3b66"/><circle cx="162" cy="70" r="1.1" fill="#1d3b66"/><circle cx="208" cy="70" r="1.1" fill="#1d3b66"/><circle cx="254" cy="70" r="1.1" fill="#1d3b66"/><circle cx="300" cy="70" r="1.1" fill="#1d3b66"/><circle cx="346" cy="70" r="1.1" fill="#1d3b66"/><circle cx="392" cy="70" r="1.1" fill="#1d3b66"/><circle cx="438" cy="70" r="1.1" fill="#1d3b66"/><circle cx="484" cy="70" r="1.1" fill="#1d3b66"/><circle cx="530" cy="70" r="1.1" fill="#1d3b66"/><circle cx="576" cy="70" r="1.1" fill="#1d3b66"/><circle cx="622" cy="70" r="1.1" fill="#1d3b66"/><circle cx="668" cy="70" r="1.1" fill="#1d3b66"/><circle cx="714" cy="70" r="1.1" fill="#1d3b66"/><circle cx="760" cy="70" r="1.1" fill="#1d3b66"/><circle cx="806" cy="70" r="1.1" fill="#1d3b66"/><circle cx="70" cy="116" r="1.1" fill="#1d3b66"/><circle cx="116" cy="116" r="1.1" fill="#1d3b66"/><circle cx="162" cy="116" r="1.1" fill="#1d3b66"/><circle cx="208" cy="116" r="1.1" fill="#1d3b66"/><circle cx="254" cy="116" r="1.1" fill="#1d3b66"/><circle cx="300" cy="116" r="1.1" fill="#1d3b66"/><circle cx="346" cy="116" r="1.1" fill="#1d3b66"/><circle cx="392" cy="116" r="1.1" fill="#1d3b66"/><circle cx="438" cy="116" r="1.1" fill="#1d3b66"/><circle cx="484" cy="116" r="1.1" fill="#1d3b66"/><circle cx="530" cy="116" r="1.1" fill="#1d3b66"/><circle cx="576" cy="116" r="1.1" fill="#1d3b66"/><circle cx="622" cy="116" r="1.1" fill="#1d3b66"/><circle cx="668" cy="116" r="1.1" fill="#1d3b66"/><circle cx="714" cy="116" r="1.1" fill="#1d3b66"/><circle cx="760" cy="116" r="1.1" fill="#1d3b66"/><circle cx="806" cy="116" r="1.1" fill="#1d3b66"/><circle cx="70" cy="162" r="1.1" fill="#1d3b66"/><circle cx="116" cy="162" r="1.1" fill="#1d3b66"/><circle cx="162" cy="162" r="1.1" fill="#1d3b66"/><circle cx="208" cy="162" r="1.1" fill="#1d3b66"/><circle cx="254" cy="162" r="1.1" fill="#1d3b66"/><circle cx="300" cy="162" r="1.1" fill="#1d3b66"/><circle cx="346" cy="162" r="1.1" fill="#1d3b66"/><circle cx="392" cy="162" r="1.1" fill="#1d3b66"/><circle cx="438" cy="162" r="1.1" fill="#1d3b66"/><circle cx="484" cy="162" r="1.1" fill="#1d3b66"/><circle cx="530" cy="162" r="1.1" fill="#1d3b66"/><circle cx="576" cy="162" r="1.1" fill="#1d3b66"/><circle cx="622" cy="162" r="1.1" fill="#1d3b66"/><circle cx="668" cy="162" r="1.1" fill="#1d3b66"/><circle cx="714" cy="162" r="1.1" fill="#1d3b66"/><circle cx="760" cy="162" r="1.1" fill="#1d3b66"/><circle cx="806" cy="162" r="1.1" fill="#1d3b66"/><circle cx="70" cy="208" r="1.1" fill="#1d3b66"/><circle cx="116" cy="208" r="1.1" fill="#1d3b66"/><circle cx="162" cy="208" r="1.1" fill="#1d3b66"/><circle cx="208" cy="208" r="1.1" fill="#1d3b66"/><circle cx="254" cy="208" r="1.1" fill="#1d3b66"/><circle cx="300" cy="208" r="1.1" fill="#1d3b66"/><circle cx="346" cy="208" r="1.1" fill="#1d3b66"/><circle cx="392" cy="208" r="1.1" fill="#1d3b66"/><circle cx="438" cy="208" r="1.1" fill="#1d3b66"/><circle cx="484" cy="208" r="1.1" fill="#1d3b66"/><circle cx="530" cy="208" r="1.1" fill="#1d3b66"/><circle cx="576" cy="208" r="1.1" fill="#1d3b66"/><circle cx="622" cy="208" r="1.1" fill="#1d3b66"/><circle cx="668" cy="208" r="1.1" fill="#1d3b66"/><circle cx="714" cy="208" r="1.1" fill="#1d3b66"/><circle cx="760" cy="208" r="1.1" fill="#1d3b66"/><circle cx="806" cy="208" r="1.1" fill="#1d3b66"/><circle cx="70" cy="254" r="1.1" fill="#1d3b66"/><circle cx="116" cy="254" r="1.1" fill="#1d3b66"/><circle cx="162" cy="254" r="1.1" fill="#1d3b66"/><circle cx="208" cy="254" r="1.1" fill="#1d3b66"/><circle cx="254" cy="254" r="1.1" fill="#1d3b66"/><circle cx="300" cy="254" r="1.1" fill="#1d3b66"/><circle cx="346" cy="254" r="1.1" fill="#1d3b66"/><circle cx="392" cy="254" r="1.1" fill="#1d3b66"/><circle cx="438" cy="254" r="1.1" fill="#1d3b66"/><circle cx="484" cy="254" r="1.1" fill="#1d3b66"/><circle cx="530" cy="254" r="1.1" fill="#1d3b66"/><circle cx="576" cy="254" r="1.1" fill="#1d3b66"/><circle cx="622" cy="254" r="1.1" fill="#1d3b66"/><circle cx="668" cy="254" r="1.1" fill="#1d3b66"/><circle cx="714" cy="254" r="1.1" fill="#1d3b66"/><circle cx="760" cy="254" r="1.1" fill="#1d3b66"/><circle cx="806" cy="254" r="1.1" fill="#1d3b66"/><circle cx="70" cy="300" r="1.1" fill="#1d3b66"/><circle cx="116" cy="300" r="1.1" fill="#1d3b66"/><circle cx="162" cy="300" r="1.1" fill="#1d3b66"/><circle cx="208" cy="300" r="1.1" fill="#1d3b66"/><circle cx="254" cy="300" r="1.1" fill="#1d3b66"/><circle cx="300" cy="300" r="1.1" fill="#1d3b66"/><circle cx="346" cy="300" r="1.1" fill="#1d3b66"/><circle cx="392" cy="300" r="1.1" fill="#1d3b66"/><circle cx="438" cy="300" r="1.1" fill="#1d3b66"/><circle cx="484" cy="300" r="1.1" fill="#1d3b66"/><circle cx="530" cy="300" r="1.1" fill="#1d3b66"/><circle cx="576" cy="300" r="1.1" fill="#1d3b66"/><circle cx="622" cy="300" r="1.1" fill="#1d3b66"/><circle cx="668" cy="300" r="1.1" fill="#1d3b66"/><circle cx="714" cy="300" r="1.1" fill="#1d3b66"/><circle cx="760" cy="300" r="1.1" fill="#1d3b66"/><circle cx="806" cy="300" r="1.1" fill="#1d3b66"/><circle cx="70" cy="346" r="1.1" fill="#1d3b66"/><circle cx="116" cy="346" r="1.1" fill="#1d3b66"/><circle cx="162" cy="346" r="1.1" fill="#1d3b66"/><circle cx="208" cy="346" r="1.1" fill="#1d3b66"/><circle cx="254" cy="346" r="1.1" fill="#1d3b66"/><circle cx="300" cy="346" r="1.1" fill="#1d3b66"/><circle cx="346" cy="346" r="1.1" fill="#1d3b66"/><circle cx="392" cy="346" r="1.1" fill="#1d3b66"/><circle cx="438" cy="346" r="1.1" fill="#1d3b66"/><circle cx="484" cy="346" r="1.1" fill="#1d3b66"/><circle cx="530" cy="346" r="1.1" fill="#1d3b66"/><circle cx="576" cy="346" r="1.1" fill="#1d3b66"/><circle cx="622" cy="346" r="1.1" fill="#1d3b66"/><circle cx="668" cy="346" r="1.1" fill="#1d3b66"/><circle cx="714" cy="346" r="1.1" fill="#1d3b66"/><circle cx="760" cy="346" r="1.1" fill="#1d3b66"/><circle cx="806" cy="346" r="1.1" fill="#1d3b66"/><circle cx="70" cy="392" r="1.1" fill="#1d3b66"/><circle cx="116" cy="392" r="1.1" fill="#1d3b66"/><circle cx="162" cy="392" r="1.1" fill="#1d3b66"/><circle cx="208" cy="392" r="1.1" fill="#1d3b66"/><circle cx="254" cy="392" r="1.1" fill="#1d3b66"/><circle cx="300" cy="392" r="1.1" fill="#1d3b66"/><circle cx="346" cy="392" r="1.1" fill="#1d3b66"/><circle cx="392" cy="392" r="1.1" fill="#1d3b66"/><circle cx="438" cy="392" r="1.1" fill="#1d3b66"/><circle cx="484" cy="392" r="1.1" fill="#1d3b66"/><circle cx="530" cy="392" r="1.1" fill="#1d3b66"/><circle cx="576" cy="392" r="1.1" fill="#1d3b66"/><circle cx="622" cy="392" r="1.1" fill="#1d3b66"/><circle cx="668" cy="392" r="1.1" fill="#1d3b66"/><circle cx="714" cy="392" r="1.1" fill="#1d3b66"/><circle cx="760" cy="392" r="1.1" fill="#1d3b66"/><circle cx="806" cy="392" r="1.1" fill="#1d3b66"/><circle cx="70" cy="438" r="1.1" fill="#1d3b66"/><circle cx="116" cy="438" r="1.1" fill="#1d3b66"/><circle cx="162" cy="438" r="1.1" fill="#1d3b66"/><circle cx="208" cy="438" r="1.1" fill="#1d3b66"/><circle cx="254" cy="438" r="1.1" fill="#1d3b66"/><circle cx="300" cy="438" r="1.1" fill="#1d3b66"/><circle cx="346" cy="438" r="1.1" fill="#1d3b66"/><circle cx="392" cy="438" r="1.1" fill="#1d3b66"/><circle cx="438" cy="438" r="1.1" fill="#1d3b66"/><circle cx="484" cy="438" r="1.1" fill="#1d3b66"/><circle cx="530" cy="438" r="1.1" fill="#1d3b66"/><circle cx="576" cy="438" r="1.1" fill="#1d3b66"/><circle cx="622" cy="438" r="1.1" fill="#1d3b66"/><circle cx="668" cy="438" r="1.1" fill="#1d3b66"/><circle cx="714" cy="438" r="1.1" fill="#1d3b66"/><circle cx="760" cy="438" r="1.1" fill="#1d3b66"/><circle cx="806" cy="438" r="1.1" fill="#1d3b66"/><circle cx="70" cy="484" r="1.1" fill="#1d3b66"/><circle cx="116" cy="484" r="1.1" fill="#1d3b66"/><circle cx="162" cy="484" r="1.1" fill="#1d3b66"/><circle cx="208" cy="484" r="1.1" fill="#1d3b66"/><circle cx="254" cy="484" r="1.1" fill="#1d3b66"/><circle cx="300" cy="484" r="1.1" fill="#1d3b66"/><circle cx="346" cy="484" r="1.1" fill="#1d3b66"/><circle cx="392" cy="484" r="1.1" fill="#1d3b66"/><circle cx="438" cy="484" r="1.1" fill="#1d3b66"/><circle cx="484" cy="484" r="1.1" fill="#1d3b66"/><circle cx="530" cy="484" r="1.1" fill="#1d3b66"/><circle cx="576" cy="484" r="1.1" fill="#1d3b66"/><circle cx="622" cy="484" r="1.1" fill="#1d3b66"/><circle cx="668" cy="484" r="1.1" fill="#1d3b66"/><circle cx="714" cy="484" r="1.1" fill="#1d3b66"/><circle cx="760" cy="484" r="1.1" fill="#1d3b66"/><circle cx="806" cy="484" r="1.1" fill="#1d3b66"/><circle cx="70" cy="530" r="1.1" fill="#1d3b66"/><circle cx="116" cy="530" r="1.1" fill="#1d3b66"/><circle cx="162" cy="530" r="1.1" fill="#1d3b66"/><circle cx="208" cy="530" r="1.1" fill="#1d3b66"/><circle cx="254" cy="530" r="1.1" fill="#1d3b66"/><circle cx="300" cy="530" r="1.1" fill="#1d3b66"/><circle cx="346" cy="530" r="1.1" fill="#1d3b66"/><circle cx="392" cy="530" r="1.1" fill="#1d3b66"/><circle cx="438" cy="530" r="1.1" fill="#1d3b66"/><circle cx="484" cy="530" r="1.1" fill="#1d3b66"/><circle cx="530" cy="530" r="1.1" fill="#1d3b66"/><circle cx="576" cy="530" r="1.1" fill="#1d3b66"/><circle cx="622" cy="530" r="1.1" fill="#1d3b66"/><circle cx="668" cy="530" r="1.1" fill="#1d3b66"/><circle cx="714" cy="530" r="1.1" fill="#1d3b66"/><circle cx="760" cy="530" r="1.1" fill="#1d3b66"/><circle cx="806" cy="530" r="1.1" fill="#1d3b66"/><circle cx="70" cy="576" r="1.1" fill="#1d3b66"/><circle cx="116" cy="576" r="1.1" fill="#1d3b66"/><circle cx="162" cy="576" r="1.1" fill="#1d3b66"/><circle cx="208" cy="576" r="1.1" fill="#1d3b66"/><circle cx="254" cy="576" r="1.1" fill="#1d3b66"/><circle cx="300" cy="576" r="1.1" fill="#1d3b66"/><circle cx="346" cy="576" r="1.1" fill="#1d3b66"/><circle cx="392" cy="576" r="1.1" fill="#1d3b66"/><circle cx="438" cy="576" r="1.1" fill="#1d3b66"/><circle cx="484" cy="576" r="1.1" fill="#1d3b66"/><circle cx="530" cy="576" r="1.1" fill="#1d3b66"/><circle cx="576" cy="576" r="1.1" fill="#1d3b66"/><circle cx="622" cy="576" r="1.1" fill="#1d3b66"/><circle cx="668" cy="576" r="1.1" fill="#1d3b66"/><circle cx="714" cy="576" r="1.1" fill="#1d3b66"/><circle cx="760" cy="576" r="1.1" fill="#1d3b66"/><circle cx="806" cy="576" r="1.1" fill="#1d3b66"/><circle cx="70" cy="622" r="1.1" fill="#1d3b66"/><circle cx="116" cy="622" r="1.1" fill="#1d3b66"/><circle cx="162" cy="622" r="1.1" fill="#1d3b66"/><circle cx="208" cy="622" r="1.1" fill="#1d3b66"/><circle cx="254" cy="622" r="1.1" fill="#1d3b66"/><circle cx="300" cy="622" r="1.1" fill="#1d3b66"/><circle cx="346" cy="622" r="1.1" fill="#1d3b66"/><circle cx="392" cy="622" r="1.1" fill="#1d3b66"/><circle cx="438" cy="622" r="1.1" fill="#1d3b66"/><circle cx="484" cy="622" r="1.1" fill="#1d3b66"/><circle cx="530" cy="622" r="1.1" fill="#1d3b66"/><circle cx="576" cy="622" r="1.1" fill="#1d3b66"/><circle cx="622" cy="622" r="1.1" fill="#1d3b66"/><circle cx="668" cy="622" r="1.1" fill="#1d3b66"/><circle cx="714" cy="622" r="1.1" fill="#1d3b66"/><circle cx="760" cy="622" r="1.1" fill="#1d3b66"/><circle cx="806" cy="622" r="1.1" fill="#1d3b66"/><circle cx="70" cy="668" r="1.1" fill="#1d3b66"/><circle cx="116" cy="668" r="1.1" fill="#1d3b66"/><circle cx="162" cy="668" r="1.1" fill="#1d3b66"/><circle cx="208" cy="668" r="1.1" fill="#1d3b66"/><circle cx="254" cy="668" r="1.1" fill="#1d3b66"/><circle cx="300" cy="668" r="1.1" fill="#1d3b66"/><circle cx="346" cy="668" r="1.1" fill="#1d3b66"/><circle cx="392" cy="668" r="1.1" fill="#1d3b66"/><circle cx="438" cy="668" r="1.1" fill="#1d3b66"/><circle cx="484" cy="668" r="1.1" fill="#1d3b66"/><circle cx="530" cy="668" r="1.1" fill="#1d3b66"/><circle cx="576" cy="668" r="1.1" fill="#1d3b66"/><circle cx="622" cy="668" r="1.1" fill="#1d3b66"/><circle cx="668" cy="668" r="1.1" fill="#1d3b66"/><circle cx="714" cy="668" r="1.1" fill="#1d3b66"/><circle cx="760" cy="668" r="1.1" fill="#1d3b66"/><circle cx="806" cy="668" r="1.1" fill="#1d3b66"/><circle cx="70" cy="714" r="1.1" fill="#1d3b66"/><circle cx="116" cy="714" r="1.1" fill="#1d3b66"/><circle cx="162" cy="714" r="1.1" fill="#1d3b66"/><circle cx="208" cy="714" r="1.1" fill="#1d3b66"/><circle cx="254" cy="714" r="1.1" fill="#1d3b66"/><circle cx="300" cy="714" r="1.1" fill="#1d3b66"/><circle cx="346" cy="714" r="1.1" fill="#1d3b66"/><circle cx="392" cy="714" r="1.1" fill="#1d3b66"/><circle cx="438" cy="714" r="1.1" fill="#1d3b66"/><circle cx="484" cy="714" r="1.1" fill="#1d3b66"/><circle cx="530" cy="714" r="1.1" fill="#1d3b66"/><circle cx="576" cy="714" r="1.1" fill="#1d3b66"/><circle cx="622" cy="714" r="1.1" fill="#1d3b66"/><circle cx="668" cy="714" r="1.1" fill="#1d3b66"/><circle cx="714" cy="714" r="1.1" fill="#1d3b66"/><circle cx="760" cy="714" r="1.1" fill="#1d3b66"/><circle cx="806" cy="714" r="1.1" fill="#1d3b66"/><circle cx="70" cy="760" r="1.1" fill="#1d3b66"/><circle cx="116" cy="760" r="1.1" fill="#1d3b66"/><circle cx="162" cy="760" r="1.1" fill="#1d3b66"/><circle cx="208" cy="760" r="1.1" fill="#1d3b66"/><circle cx="254" cy="760" r="1.1" fill="#1d3b66"/><circle cx="300" cy="760" r="1.1" fill="#1d3b66"/><circle cx="346" cy="760" r="1.1" fill="#1d3b66"/><circle cx="392" cy="760" r="1.1" fill="#1d3b66"/><circle cx="438" cy="760" r="1.1" fill="#1d3b66"/><circle cx="484" cy="760" r="1.1" fill="#1d3b66"/><circle cx="530" cy="760" r="1.1" fill="#1d3b66"/><circle cx="576" cy="760" r="1.1" fill="#1d3b66"/><circle cx="622" cy="760" r="1.1" fill="#1d3b66"/><circle cx="668" cy="760" r="1.1" fill="#1d3b66"/><circle cx="714" cy="760" r="1.1" fill="#1d3b66"/><circle cx="760" cy="760" r="1.1" fill="#1d3b66"/><circle cx="806" cy="760" r="1.1" fill="#1d3b66"/><circle cx="70" cy="806" r="1.1" fill="#1d3b66"/><circle cx="116" cy="806" r="1.1" fill="#1d3b66"/><circle cx="162" cy="806" r="1.1" fill="#1d3b66"/><circle cx="208" cy="806" r="1.1" fill="#1d3b66"/><circle cx="254" cy="806" r="1.1" fill="#1d3b66"/><circle cx="300" cy="806" r="1.1" fill="#1d3b66"/><circle cx="346" cy="806" r="1.1" fill="#1d3b66"/><circle cx="392" cy="806" r="1.1" fill="#1d3b66"/><circle cx="438" cy="806" r="1.1" fill="#1d3b66"/><circle cx="484" cy="806" r="1.1" fill="#1d3b66"/><circle cx="530" cy="806" r="1.1" fill="#1d3b66"/><circle cx="576" cy="806" r="1.1" fill="#1d3b66"/><circle cx="622" cy="806" r="1.1" fill="#1d3b66"/><circle cx="668" cy="806" r="1.1" fill="#1d3b66"/><circle cx="714" cy="806" r="1.1" fill="#1d3b66"/><circle cx="760" cy="806" r="1.1" fill="#1d3b66"/><circle cx="806" cy="806" r="1.1" fill="#1d3b66"/><g stroke="#7dd3fc" stroke-width="3" fill="none" opacity="0.28" stroke-dasharray="2 6" stroke-linecap="round"><line x1="93" y1="783" x2="93" y2="737"/><line x1="93" y1="737" x2="139" y2="737"/><line x1="139" y1="737" x2="139" y2="783"/><line x1="139" y1="783" x2="185" y2="783"/><line x1="185" y1="783" x2="185" y2="737"/><line x1="185" y1="737" x2="231" y2="737"/><line x1="231" y1="737" x2="231" y2="783"/><line x1="231" y1="783" x2="277" y2="783"/><line x1="277" y1="783" x2="277" y2="737"/><line x1="277" y1="737" x2="277" y2="691"/><line x1="277" y1="691" x2="277" y2="645"/><line x1="277" y1="645" x2="277" y2="599"/><line x1="277" y1="599" x2="323" y2="599"/><line x1="323" y1="599" x2="323" y2="553"/><line x1="323" y1="553" x2="277" y2="553"/><line x1="277" y1="553" x2="231" y2="553"/><line x1="231" y1="553" x2="231" y2="507"/><line x1="231" y1="507" x2="231" y2="461"/><line x1="231" y1="461" x2="231" y2="415"/><line x1="231" y1="415" x2="231" y2="369"/><line x1="231" y1="369" x2="231" y2="323"/><line x1="231" y1="323" x2="277" y2="323"/><line x1="277" y1="323" x2="323" y2="323"/><line x1="323" y1="323" x2="323" y2="277"/><line x1="323" y1="277" x2="277" y2="277"/><line x1="277" y1="277" x2="231" y2="277"/><line x1="231" y1="277" x2="185" y2="277"/><line x1="185" y1="277" x2="185" y2="323"/><line x1="185" y1="323" x2="185" y2="369"/><line x1="185" y1="369" x2="139" y2="369"/><line x1="139" y1="369" x2="139" y2="323"/><line x1="139" y1="323" x2="139" y2="277"/><line x1="139" y1="277" x2="93" y2="277"/><line x1="93" y1="277" x2="93" y2="231"/><line x1="93" y1="231" x2="93" y2="185"/><line x1="93" y1="185" x2="93" y2="139"/><line x1="93" y1="139" x2="93" y2="93"/><line x1="93" y1="93" x2="139" y2="93"/><line x1="139" y1="93" x2="139" y2="139"/><line x1="139" y1="139" x2="185" y2="139"/><line x1="185" y1="139" x2="185" y2="185"/><line x1="185" y1="185" x2="231" y2="185"/><line x1="231" y1="185" x2="231" y2="139"/><line x1="231" y1="139" x2="231" y2="93"/><line x1="231" y1="93" x2="277" y2="93"/><line x1="277" y1="93" x2="277" y2="139"/><line x1="277" y1="139" x2="277" y2="185"/><line x1="277" y1="185" x2="277" y2="231"/><line x1="277" y1="231" x2="323" y2="231"/><line x1="323" y1="231" x2="369" y2="231"/><line x1="369" y1="231" x2="369" y2="185"/><line x1="369" y1="185" x2="323" y2="185"/><line x1="323" y1="185" x2="323" y2="139"/><line x1="323" y1="139" x2="323" y2="93"/><line x1="323" y1="93" x2="369" y2="93"/><line x1="369" y1="93" x2="369" y2="139"/><line x1="369" y1="139" x2="415" y2="139"/><line x1="415" y1="139" x2="415" y2="93"/><line x1="415" y1="93" x2="461" y2="93"/><line x1="461" y1="93" x2="461" y2="139"/><line x1="461" y1="139" x2="461" y2="185"/><line x1="461" y1="185" x2="461" y2="231"/><line x1="461" y1="231" x2="461" y2="277"/><line x1="461" y1="277" x2="461" y2="323"/><line x1="461" y1="323" x2="415" y2="323"/><line x1="415" y1="323" x2="369" y2="323"/><line x1="369" y1="323" x2="369" y2="369"/><line x1="369" y1="369" x2="323" y2="369"/><line x1="323" y1="369" x2="323" y2="415"/><line x1="323" y1="415" x2="323" y2="461"/><line x1="323" y1="461" x2="277" y2="461"/><line x1="277" y1="461" x2="277" y2="507"/><line x1="277" y1="507" x2="323" y2="507"/><line x1="323" y1="507" x2="369" y2="507"/><line x1="369" y1="507" x2="369" y2="461"/><line x1="369" y1="461" x2="415" y2="461"/><line x1="415" y1="461" x2="461" y2="461"/><line x1="461" y1="461" x2="461" y2="415"/><line x1="461" y1="415" x2="461" y2="369"/><line x1="461" y1="369" x2="507" y2="369"/><line x1="507" y1="369" x2="507" y2="323"/><line x1="507" y1="323" x2="507" y2="277"/><line x1="507" y1="277" x2="507" y2="231"/><line x1="507" y1="231" x2="507" y2="185"/><line x1="507" y1="185" x2="507" y2="139"/><line x1="507" y1="139" x2="553" y2="139"/><line x1="553" y1="139" x2="553" y2="93"/><line x1="553" y1="93" x2="599" y2="93"/><line x1="599" y1="93" x2="599" y2="139"/><line x1="599" y1="139" x2="645" y2="139"/><line x1="645" y1="139" x2="645" y2="185"/><line x1="645" y1="185" x2="645" y2="231"/><line x1="645" y1="231" x2="691" y2="231"/><line x1="691" y1="231" x2="737" y2="231"/><line x1="737" y1="231" x2="737" y2="277"/><line x1="737" y1="277" x2="783" y2="277"/><line x1="783" y1="277" x2="783" y2="231"/><line x1="783" y1="231" x2="783" y2="185"/><line x1="783" y1="185" x2="737" y2="185"/><line x1="737" y1="185" x2="737" y2="139"/><line x1="737" y1="139" x2="737" y2="93"/><line x1="737" y1="93" x2="783" y2="93"/></g><g stroke="#eaf2ff" stroke-width="3" stroke-linecap="square"><line x1="70" y1="70" x2="116" y2="70"/><line x1="70" y1="70" x2="70" y2="116"/><line x1="116" y1="70" x2="162" y2="70"/><line x1="162" y1="70" x2="162" y2="116"/><line x1="162" y1="70" x2="208" y2="70"/><line x1="162" y1="70" x2="162" y2="116"/><line x1="162" y1="116" x2="208" y2="116"/><line x1="208" y1="70" x2="254" y2="70"/><line x1="254" y1="70" x2="300" y2="70"/><line x1="300" y1="70" x2="300" y2="116"/><line x1="300" y1="70" x2="346" y2="70"/><line x1="300" y1="70" x2="300" y2="116"/><line x1="346" y1="70" x2="392" y2="70"/><line x1="392" y1="70" x2="392" y2="116"/><line x1="392" y1="70" x2="438" y2="70"/><line x1="392" y1="70" x2="392" y2="116"/><line x1="438" y1="70" x2="484" y2="70"/><line x1="484" y1="70" x2="484" y2="116"/><line x1="484" y1="70" x2="530" y2="70"/><line x1="484" y1="70" x2="484" y2="116"/><line x1="484" y1="116" x2="530" y2="116"/><line x1="530" y1="70" x2="576" y2="70"/><line x1="576" y1="70" x2="622" y2="70"/><line x1="622" y1="70" x2="622" y2="116"/><line x1="622" y1="70" x2="668" y2="70"/><line x1="622" y1="70" x2="622" y2="116"/><line x1="622" y1="116" x2="668" y2="116"/><line x1="668" y1="70" x2="714" y2="70"/><line x1="714" y1="70" x2="760" y2="70"/><line x1="760" y1="70" x2="806" y2="70"/><line x1="70" y1="116" x2="70" y2="162"/><line x1="116" y1="116" x2="116" y2="162"/><line x1="116" y1="116" x2="116" y2="162"/><line x1="116" y1="162" x2="162" y2="162"/><line x1="162" y1="116" x2="208" y2="116"/><line x1="208" y1="116" x2="208" y2="162"/><line x1="208" y1="116" x2="208" y2="162"/><line x1="254" y1="116" x2="254" y2="162"/><line x1="254" y1="116" x2="254" y2="162"/><line x1="300" y1="116" x2="300" y2="162"/><line x1="300" y1="116" x2="300" y2="162"/><line x1="346" y1="116" x2="346" y2="162"/><line x1="346" y1="116" x2="346" y2="162"/><line x1="346" y1="162" x2="392" y2="162"/><line x1="392" y1="162" x2="438" y2="162"/><line x1="438" y1="116" x2="438" y2="162"/><line x1="438" y1="116" x2="438" y2="162"/><line x1="484" y1="116" x2="484" y2="162"/><line x1="484" y1="116" x2="530" y2="116"/><line x1="484" y1="116" x2="484" y2="162"/><line x1="530" y1="162" x2="576" y2="162"/><line x1="576" y1="116" x2="576" y2="162"/><line x1="576" y1="116" x2="576" y2="162"/><line x1="576" y1="162" x2="622" y2="162"/><line x1="622" y1="116" x2="668" y2="116"/><line x1="668" y1="116" x2="668" y2="162"/><line x1="668" y1="116" x2="668" y2="162"/><line x1="714" y1="116" x2="714" y2="162"/><line x1="714" y1="116" x2="714" y2="162"/><line x1="760" y1="116" x2="760" y2="162"/><line x1="760" y1="116" x2="760" y2="162"/><line x1="760" y1="162" x2="806" y2="162"/><line x1="806" y1="116" x2="806" y2="162"/><line x1="70" y1="162" x2="70" y2="208"/><line x1="116" y1="162" x2="116" y2="208"/><line x1="116" y1="162" x2="162" y2="162"/><line x1="116" y1="162" x2="116" y2="208"/><line x1="162" y1="162" x2="162" y2="208"/><line x1="162" y1="162" x2="162" y2="208"/><line x1="162" y1="208" x2="208" y2="208"/><line x1="208" y1="208" x2="254" y2="208"/><line x1="254" y1="162" x2="254" y2="208"/><line x1="254" y1="162" x2="254" y2="208"/><line x1="300" y1="162" x2="300" y2="208"/><line x1="300" y1="162" x2="300" y2="208"/><line x1="300" y1="208" x2="346" y2="208"/><line x1="346" y1="162" x2="392" y2="162"/><line x1="392" y1="162" x2="392" y2="208"/><line x1="392" y1="162" x2="438" y2="162"/><line x1="392" y1="162" x2="392" y2="208"/><line x1="438" y1="162" x2="438" y2="208"/><line x1="438" y1="162" x2="438" y2="208"/><line x1="484" y1="162" x2="484" y2="208"/><line x1="484" y1="162" x2="484" y2="208"/><line x1="530" y1="162" x2="530" y2="208"/><line x1="530" y1="162" x2="576" y2="162"/><line x1="530" y1="162" x2="530" y2="208"/><line x1="576" y1="162" x2="622" y2="162"/><line x1="576" y1="208" x2="622" y2="208"/><line x1="622" y1="162" x2="622" y2="208"/><line x1="622" y1="162" x2="622" y2="208"/><line x1="668" y1="162" x2="668" y2="208"/><line x1="668" y1="162" x2="668" y2="208"/><line x1="668" y1="208" x2="714" y2="208"/><line x1="714" y1="162" x2="714" y2="208"/><line x1="714" y1="162" x2="714" y2="208"/><line x1="714" y1="208" x2="760" y2="208"/><line x1="760" y1="162" x2="806" y2="162"/><line x1="806" y1="162" x2="806" y2="208"/><line x1="70" y1="208" x2="70" y2="254"/><line x1="116" y1="208" x2="116" y2="254"/><line x1="116" y1="208" x2="116" y2="254"/><line x1="116" y1="254" x2="162" y2="254"/><line x1="162" y1="208" x2="208" y2="208"/><line x1="162" y1="254" x2="208" y2="254"/><line x1="208" y1="208" x2="254" y2="208"/><line x1="208" y1="254" x2="254" y2="254"/><line x1="254" y1="254" x2="300" y2="254"/><line x1="300" y1="208" x2="346" y2="208"/><line x1="300" y1="254" x2="346" y2="254"/><line x1="346" y1="254" x2="392" y2="254"/><line x1="392" y1="208" x2="392" y2="254"/><line x1="392" y1="208" x2="392" y2="254"/><line x1="438" y1="208" x2="438" y2="254"/><line x1="438" y1="208" x2="438" y2="254"/><line x1="484" y1="208" x2="484" y2="254"/><line x1="484" y1="208" x2="484" y2="254"/><line x1="530" y1="208" x2="530" y2="254"/><line x1="530" y1="208" x2="530" y2="254"/><line x1="576" y1="208" x2="622" y2="208"/><line x1="622" y1="208" x2="622" y2="254"/><line x1="622" y1="208" x2="622" y2="254"/><line x1="622" y1="254" x2="668" y2="254"/><line x1="668" y1="208" x2="714" y2="208"/><line x1="668" y1="254" x2="714" y2="254"/><line x1="714" y1="208" x2="760" y2="208"/><line x1="760" y1="208" x2="760" y2="254"/><line x1="760" y1="208" x2="760" y2="254"/><line x1="806" y1="208" x2="806" y2="254"/><line x1="70" y1="254" x2="70" y2="300"/><line x1="116" y1="254" x2="162" y2="254"/><line x1="162" y1="254" x2="162" y2="300"/><line x1="162" y1="254" x2="208" y2="254"/><line x1="162" y1="254" x2="162" y2="300"/><line x1="208" y1="254" x2="254" y2="254"/><line x1="208" y1="300" x2="254" y2="300"/><line x1="254" y1="254" x2="300" y2="254"/><line x1="254" y1="300" x2="300" y2="300"/><line x1="300" y1="254" x2="346" y2="254"/><line x1="346" y1="254" x2="346" y2="300"/><line x1="346" y1="254" x2="392" y2="254"/><line x1="346" y1="254" x2="346" y2="300"/><line x1="392" y1="300" x2="438" y2="300"/><line x1="438" y1="254" x2="438" y2="300"/><line x1="438" y1="254" x2="438" y2="300"/><line x1="484" y1="254" x2="484" y2="300"/><line x1="484" y1="254" x2="484" y2="300"/><line x1="530" y1="254" x2="530" y2="300"/><line x1="530" y1="254" x2="530" y2="300"/><line x1="576" y1="254" x2="576" y2="300"/><line x1="576" y1="254" x2="576" y2="300"/><line x1="576" y1="300" x2="622" y2="300"/><line x1="622" y1="254" x2="668" y2="254"/><line x1="668" y1="254" x2="714" y2="254"/><line x1="668" y1="300" x2="714" y2="300"/><line x1="714" y1="254" x2="714" y2="300"/><line x1="714" y1="254" x2="714" y2="300"/><line x1="714" y1="300" x2="760" y2="300"/><line x1="806" y1="254" x2="806" y2="300"/><line x1="70" y1="300" x2="70" y2="346"/><line x1="116" y1="300" x2="116" y2="346"/><line x1="116" y1="300" x2="116" y2="346"/><line x1="162" y1="300" x2="162" y2="346"/><line x1="162" y1="300" x2="162" y2="346"/><line x1="208" y1="300" x2="208" y2="346"/><line x1="208" y1="300" x2="254" y2="300"/><line x1="208" y1="300" x2="208" y2="346"/><line x1="254" y1="300" x2="300" y2="300"/><line x1="254" y1="346" x2="300" y2="346"/><line x1="300" y1="346" x2="346" y2="346"/><line x1="346" y1="300" x2="346" y2="346"/><line x1="346" y1="300" x2="346" y2="346"/><line x1="392" y1="300" x2="438" y2="300"/><line x1="392" y1="346" x2="438" y2="346"/><line x1="438" y1="346" x2="484" y2="346"/><line x1="484" y1="300" x2="484" y2="346"/><line x1="484" y1="300" x2="484" y2="346"/><line x1="530" y1="300" x2="530" y2="346"/><line x1="530" y1="300" x2="530" y2="346"/><line x1="576" y1="300" x2="576" y2="346"/><line x1="576" y1="300" x2="622" y2="300"/><line x1="576" y1="300" x2="576" y2="346"/><line x1="622" y1="300" x2="622" y2="346"/><line x1="622" y1="300" x2="622" y2="346"/><line x1="622" y1="346" x2="668" y2="346"/><line x1="668" y1="300" x2="714" y2="300"/><line x1="668" y1="346" x2="714" y2="346"/><line x1="714" y1="300" x2="760" y2="300"/><line x1="714" y1="346" x2="760" y2="346"/><line x1="760" y1="346" x2="806" y2="346"/><line x1="806" y1="300" x2="806" y2="346"/><line x1="70" y1="346" x2="70" y2="392"/><line x1="116" y1="346" x2="116" y2="392"/><line x1="116" y1="346" x2="116" y2="392"/><line x1="116" y1="392" x2="162" y2="392"/><line x1="162" y1="392" x2="208" y2="392"/><line x1="208" y1="346" x2="208" y2="392"/><line x1="208" y1="346" x2="208" y2="392"/><line x1="254" y1="346" x2="254" y2="392"/><line x1="254" y1="346" x2="300" y2="346"/><line x1="254" y1="346" x2="254" y2="392"/><line x1="300" y1="346" x2="300" y2="392"/><line x1="300" y1="346" x2="346" y2="346"/><line x1="300" y1="346" x2="300" y2="392"/><line x1="346" y1="392" x2="392" y2="392"/><line x1="392" y1="346" x2="392" y2="392"/><line x1="392" y1="346" x2="438" y2="346"/><line x1="392" y1="346" x2="392" y2="392"/><line x1="438" y1="346" x2="484" y2="346"/><line x1="484" y1="392" x2="530" y2="392"/><line x1="530" y1="346" x2="530" y2="392"/><line x1="530" y1="346" x2="530" y2="392"/><line x1="576" y1="346" x2="576" y2="392"/><line x1="576" y1="346" x2="576" y2="392"/><line x1="622" y1="346" x2="668" y2="346"/><line x1="622" y1="392" x2="668" y2="392"/><line x1="668" y1="346" x2="714" y2="346"/><line x1="714" y1="346" x2="714" y2="392"/><line x1="714" y1="346" x2="760" y2="346"/><line x1="714" y1="346" x2="714" y2="392"/><line x1="760" y1="346" x2="806" y2="346"/><line x1="760" y1="392" x2="806" y2="392"/><line x1="806" y1="346" x2="806" y2="392"/><line x1="70" y1="392" x2="70" y2="438"/><line x1="70" y1="438" x2="116" y2="438"/><line x1="116" y1="392" x2="162" y2="392"/><line x1="116" y1="438" x2="162" y2="438"/><line x1="162" y1="392" x2="208" y2="392"/><line x1="208" y1="392" x2="208" y2="438"/><line x1="208" y1="392" x2="208" y2="438"/><line x1="254" y1="392" x2="254" y2="438"/><line x1="254" y1="392" x2="254" y2="438"/><line x1="300" y1="392" x2="300" y2="438"/><line x1="300" y1="392" x2="300" y2="438"/><line x1="346" y1="392" x2="346" y2="438"/><line x1="346" y1="392" x2="392" y2="392"/><line x1="346" y1="392" x2="346" y2="438"/><line x1="346" y1="438" x2="392" y2="438"/><line x1="392" y1="438" x2="438" y2="438"/><line x1="438" y1="392" x2="438" y2="438"/><line x1="438" y1="392" x2="438" y2="438"/><line x1="484" y1="392" x2="484" y2="438"/><line x1="484" y1="392" x2="530" y2="392"/><line x1="484" y1="392" x2="484" y2="438"/><line x1="530" y1="392" x2="530" y2="438"/><line x1="530" y1="392" x2="530" y2="438"/><line x1="576" y1="392" x2="576" y2="438"/><line x1="576" y1="392" x2="576" y2="438"/><line x1="622" y1="392" x2="622" y2="438"/><line x1="622" y1="392" x2="668" y2="392"/><line x1="622" y1="392" x2="622" y2="438"/><line x1="668" y1="392" x2="668" y2="438"/><line x1="668" y1="392" x2="668" y2="438"/><line x1="714" y1="392" x2="714" y2="438"/><line x1="714" y1="392" x2="714" y2="438"/><line x1="714" y1="438" x2="760" y2="438"/><line x1="760" y1="392" x2="806" y2="392"/><line x1="806" y1="392" x2="806" y2="438"/><line x1="70" y1="438" x2="116" y2="438"/><line x1="70" y1="438" x2="70" y2="484"/><line x1="116" y1="438" x2="116" y2="484"/><line x1="116" y1="438" x2="162" y2="438"/><line x1="116" y1="438" x2="116" y2="484"/><line x1="162" y1="484" x2="208" y2="484"/><line x1="208" y1="438" x2="208" y2="484"/><line x1="208" y1="438" x2="208" y2="484"/><line x1="254" y1="438" x2="254" y2="484"/><line x1="254" y1="438" x2="254" y2="484"/><line x1="300" y1="484" x2="346" y2="484"/><line x1="346" y1="438" x2="346" y2="484"/><line x1="346" y1="438" x2="392" y2="438"/><line x1="346" y1="438" x2="346" y2="484"/><line x1="392" y1="438" x2="438" y2="438"/><line x1="392" y1="484" x2="438" y2="484"/><line x1="438" y1="484" x2="484" y2="484"/><line x1="484" y1="438" x2="484" y2="484"/><line x1="484" y1="438" x2="484" y2="484"/><line x1="530" y1="438" x2="530" y2="484"/><line x1="530" y1="438" x2="530" y2="484"/><line x1="576" y1="438" x2="576" y2="484"/><line x1="576" y1="438" x2="576" y2="484"/><line x1="622" y1="438" x2="622" y2="484"/><line x1="622" y1="438" x2="622" y2="484"/><line x1="668" y1="484" x2="714" y2="484"/><line x1="714" y1="438" x2="714" y2="484"/><line x1="714" y1="438" x2="760" y2="438"/><line x1="714" y1="438" x2="714" y2="484"/><line x1="806" y1="438" x2="806" y2="484"/><line x1="70" y1="484" x2="70" y2="530"/><line x1="116" y1="484" x2="116" y2="530"/><line x1="116" y1="484" x2="116" y2="530"/><line x1="116" y1="530" x2="162" y2="530"/><line x1="162" y1="484" x2="208" y2="484"/><line x1="208" y1="484" x2="208" y2="530"/><line x1="208" y1="484" x2="208" y2="530"/><line x1="254" y1="484" x2="254" y2="530"/><line x1="254" y1="484" x2="254" y2="530"/><line x1="254" y1="530" x2="300" y2="530"/><line x1="300" y1="484" x2="346" y2="484"/><line x1="300" y1="530" x2="346" y2="530"/><line x1="346" y1="530" x2="392" y2="530"/><line x1="392" y1="484" x2="392" y2="530"/><line x1="392" y1="484" x2="438" y2="484"/><line x1="392" y1="484" x2="392" y2="530"/><line x1="438" y1="484" x2="484" y2="484"/><line x1="484" y1="484" x2="484" y2="530"/><line x1="484" y1="484" x2="484" y2="530"/><line x1="530" y1="484" x2="530" y2="530"/><line x1="530" y1="484" x2="530" y2="530"/><line x1="530" y1="530" x2="576" y2="530"/><line x1="576" y1="530" x2="622" y2="530"/><line x1="622" y1="484" x2="622" y2="530"/><line x1="622" y1="484" x2="622" y2="530"/><line x1="668" y1="484" x2="668" y2="530"/><line x1="668" y1="484" x2="714" y2="484"/><line x1="668" y1="484" x2="668" y2="530"/><line x1="714" y1="530" x2="760" y2="530"/><line x1="760" y1="484" x2="760" y2="530"/><line x1="760" y1="484" x2="760" y2="530"/><line x1="806" y1="484" x2="806" y2="530"/><line x1="70" y1="530" x2="70" y2="576"/><line x1="116" y1="530" x2="162" y2="530"/><line x1="116" y1="576" x2="162" y2="576"/><line x1="162" y1="576" x2="208" y2="576"/><line x1="208" y1="530" x2="208" y2="576"/><line x1="208" y1="530" x2="208" y2="576"/><line x1="208" y1="576" x2="254" y2="576"/><line x1="254" y1="530" x2="300" y2="530"/><line x1="254" y1="576" x2="300" y2="576"/><line x1="300" y1="530" x2="346" y2="530"/><line x1="346" y1="530" x2="346" y2="576"/><line x1="346" y1="530" x2="392" y2="530"/><line x1="346" y1="530" x2="346" y2="576"/><line x1="392" y1="576" x2="438" y2="576"/><line x1="438" y1="530" x2="438" y2="576"/><line x1="438" y1="530" x2="438" y2="576"/><line x1="484" y1="530" x2="484" y2="576"/><line x1="484" y1="530" x2="484" y2="576"/><line x1="484" y1="576" x2="530" y2="576"/><line x1="530" y1="530" x2="576" y2="530"/><line x1="576" y1="530" x2="576" y2="576"/><line x1="576" y1="530" x2="622" y2="530"/><line x1="576" y1="530" x2="576" y2="576"/><line x1="622" y1="576" x2="668" y2="576"/><line x1="668" y1="530" x2="668" y2="576"/><line x1="668" y1="530" x2="668" y2="576"/><line x1="668" y1="576" x2="714" y2="576"/><line x1="714" y1="530" x2="760" y2="530"/><line x1="760" y1="530" x2="760" y2="576"/><line x1="760" y1="530" x2="760" y2="576"/><line x1="806" y1="530" x2="806" y2="576"/><line x1="70" y1="576" x2="70" y2="622"/><line x1="116" y1="576" x2="116" y2="622"/><line x1="116" y1="576" x2="162" y2="576"/><line x1="116" y1="576" x2="116" y2="622"/><line x1="116" y1="622" x2="162" y2="622"/><line x1="162" y1="576" x2="208" y2="576"/><line x1="162" y1="622" x2="208" y2="622"/><line x1="208" y1="576" x2="254" y2="576"/><line x1="254" y1="576" x2="254" y2="622"/><line x1="254" y1="576" x2="300" y2="576"/><line x1="254" y1="576" x2="254" y2="622"/><line x1="300" y1="622" x2="346" y2="622"/><line x1="346" y1="576" x2="346" y2="622"/><line x1="346" y1="576" x2="346" y2="622"/><line x1="392" y1="576" x2="392" y2="622"/><line x1="392" y1="576" x2="438" y2="576"/><line x1="392" y1="576" x2="392" y2="622"/><line x1="392" y1="622" x2="438" y2="622"/><line x1="438" y1="622" x2="484" y2="622"/><line x1="484" y1="576" x2="530" y2="576"/><line x1="530" y1="576" x2="530" y2="622"/><line x1="530" y1="576" x2="530" y2="622"/><line x1="576" y1="576" x2="576" y2="622"/><line x1="576" y1="576" x2="576" y2="622"/><line x1="622" y1="576" x2="622" y2="622"/><line x1="622" y1="576" x2="668" y2="576"/><line x1="622" y1="576" x2="622" y2="622"/><line x1="668" y1="576" x2="714" y2="576"/><line x1="668" y1="622" x2="714" y2="622"/><line x1="714" y1="622" x2="760" y2="622"/><line x1="760" y1="576" x2="760" y2="622"/><line x1="760" y1="576" x2="760" y2="622"/><line x1="806" y1="576" x2="806" y2="622"/><line x1="70" y1="622" x2="70" y2="668"/><line x1="70" y1="668" x2="116" y2="668"/><line x1="116" y1="622" x2="162" y2="622"/><line x1="116" y1="668" x2="162" y2="668"/><line x1="162" y1="622" x2="208" y2="622"/><line x1="162" y1="668" x2="208" y2="668"/><line x1="254" y1="622" x2="254" y2="668"/><line x1="254" y1="622" x2="254" y2="668"/><line x1="300" y1="622" x2="300" y2="668"/><line x1="300" y1="622" x2="346" y2="622"/><line x1="300" y1="622" x2="300" y2="668"/><line x1="346" y1="668" x2="392" y2="668"/><line x1="392" y1="622" x2="392" y2="668"/><line x1="392" y1="622" x2="438" y2="622"/><line x1="392" y1="622" x2="392" y2="668"/><line x1="438" y1="622" x2="484" y2="622"/><line x1="484" y1="622" x2="484" y2="668"/><line x1="484" y1="622" x2="484" y2="668"/><line x1="484" y1="668" x2="530" y2="668"/><line x1="530" y1="668" x2="576" y2="668"/><line x1="576" y1="622" x2="576" y2="668"/><line x1="576" y1="622" x2="576" y2="668"/><line x1="622" y1="622" x2="622" y2="668"/><line x1="622" y1="622" x2="622" y2="668"/><line x1="668" y1="622" x2="668" y2="668"/><line x1="668" y1="622" x2="714" y2="622"/><line x1="668" y1="622" x2="668" y2="668"/><line x1="714" y1="622" x2="760" y2="622"/><line x1="760" y1="622" x2="760" y2="668"/><line x1="760" y1="622" x2="760" y2="668"/><line x1="806" y1="622" x2="806" y2="668"/><line x1="70" y1="668" x2="116" y2="668"/><line x1="70" y1="668" x2="70" y2="714"/><line x1="70" y1="714" x2="116" y2="714"/><line x1="116" y1="668" x2="162" y2="668"/><line x1="116" y1="714" x2="162" y2="714"/><line x1="162" y1="668" x2="208" y2="668"/><line x1="162" y1="714" x2="208" y2="714"/><line x1="208" y1="714" x2="254" y2="714"/><line x1="254" y1="668" x2="254" y2="714"/><line x1="254" y1="668" x2="254" y2="714"/><line x1="300" y1="668" x2="300" y2="714"/><line x1="300" y1="668" x2="300" y2="714"/><line x1="346" y1="668" x2="392" y2="668"/><line x1="346" y1="714" x2="392" y2="714"/><line x1="392" y1="714" x2="438" y2="714"/><line x1="438" y1="668" x2="438" y2="714"/><line x1="438" y1="668" x2="438" y2="714"/><line x1="438" y1="714" x2="484" y2="714"/><line x1="484" y1="668" x2="530" y2="668"/><line x1="484" y1="714" x2="530" y2="714"/><line x1="530" y1="668" x2="576" y2="668"/><line x1="530" y1="714" x2="576" y2="714"/><line x1="576" y1="714" x2="622" y2="714"/><line x1="622" y1="668" x2="622" y2="714"/><line x1="622" y1="668" x2="622" y2="714"/><line x1="668" y1="668" x2="668" y2="714"/><line x1="668" y1="668" x2="668" y2="714"/><line x1="668" y1="714" x2="714" y2="714"/><line x1="714" y1="668" x2="714" y2="714"/><line x1="714" y1="668" x2="714" y2="714"/><line x1="760" y1="714" x2="806" y2="714"/><line x1="806" y1="668" x2="806" y2="714"/><line x1="70" y1="714" x2="116" y2="714"/><line x1="70" y1="714" x2="70" y2="760"/><line x1="116" y1="714" x2="162" y2="714"/><line x1="162" y1="714" x2="162" y2="760"/><line x1="162" y1="714" x2="208" y2="714"/><line x1="162" y1="714" x2="162" y2="760"/><line x1="208" y1="714" x2="254" y2="714"/><line x1="254" y1="714" x2="254" y2="760"/><line x1="254" y1="714" x2="254" y2="760"/><line x1="300" y1="714" x2="300" y2="760"/><line x1="300" y1="714" x2="300" y2="760"/><line x1="300" y1="760" x2="346" y2="760"/><line x1="346" y1="714" x2="392" y2="714"/><line x1="346" y1="760" x2="392" y2="760"/><line x1="392" y1="714" x2="438" y2="714"/><line x1="438" y1="714" x2="438" y2="760"/><line x1="438" y1="714" x2="484" y2="714"/><line x1="438" y1="714" x2="438" y2="760"/><line x1="484" y1="714" x2="530" y2="714"/><line x1="530" y1="714" x2="530" y2="760"/><line x1="530" y1="714" x2="576" y2="714"/><line x1="530" y1="714" x2="530" y2="760"/><line x1="576" y1="714" x2="622" y2="714"/><line x1="622" y1="714" x2="622" y2="760"/><line x1="622" y1="714" x2="622" y2="760"/><line x1="622" y1="760" x2="668" y2="760"/><line x1="668" y1="714" x2="714" y2="714"/><line x1="714" y1="714" x2="714" y2="760"/><line x1="714" y1="714" x2="714" y2="760"/><line x1="714" y1="760" x2="760" y2="760"/><line x1="760" y1="714" x2="806" y2="714"/><line x1="806" y1="714" x2="806" y2="760"/><line x1="70" y1="806" x2="116" y2="806"/><line x1="116" y1="760" x2="116" y2="806"/><line x1="116" y1="760" x2="116" y2="806"/><line x1="116" y1="806" x2="162" y2="806"/><line x1="162" y1="806" x2="208" y2="806"/><line x1="208" y1="760" x2="208" y2="806"/><line x1="208" y1="760" x2="208" y2="806"/><line x1="208" y1="806" x2="254" y2="806"/><line x1="254" y1="806" x2="300" y2="806"/><line x1="300" y1="760" x2="300" y2="806"/><line x1="300" y1="760" x2="346" y2="760"/><line x1="300" y1="760" x2="300" y2="806"/><line x1="300" y1="806" x2="346" y2="806"/><line x1="346" y1="760" x2="392" y2="760"/><line x1="346" y1="806" x2="392" y2="806"/><line x1="392" y1="806" x2="438" y2="806"/><line x1="438" y1="806" x2="484" y2="806"/><line x1="484" y1="760" x2="484" y2="806"/><line x1="484" y1="760" x2="484" y2="806"/><line x1="484" y1="806" x2="530" y2="806"/><line x1="530" y1="806" x2="576" y2="806"/><line x1="576" y1="760" x2="576" y2="806"/><line x1="576" y1="760" x2="576" y2="806"/><line x1="576" y1="806" x2="622" y2="806"/><line x1="622" y1="760" x2="668" y2="760"/><line x1="622" y1="806" x2="668" y2="806"/><line x1="668" y1="806" x2="714" y2="806"/><line x1="714" y1="760" x2="714" y2="806"/><line x1="714" y1="760" x2="760" y2="760"/><line x1="714" y1="760" x2="714" y2="806"/><line x1="714" y1="806" x2="760" y2="806"/><line x1="760" y1="806" x2="806" y2="806"/><line x1="806" y1="760" x2="806" y2="806"/></g><circle cx="93" cy="783" r="13" fill="#34d399" opacity="0.18"/><circle cx="93" cy="783" r="8" fill="none" stroke="#34d399" stroke-width="2.5"/><text x="93" y="787" fill="#34d399" font-size="11" font-weight="bold" text-anchor="middle">S</text><text x="62" y="787" fill="#34d399" font-size="10" text-anchor="end">ENTRY ▸</text><rect x="802" y="76" width="8" height="34" fill="#fb7185" opacity="0.85"/><text x="783" y="97" fill="#fb7185" font-size="11" font-weight="bold" text-anchor="middle">E</text><text x="816" y="97" fill="#fb7185" font-size="10" text-anchor="start">◂ EXIT DOOR</text><circle cx="185" cy="93" r="13" fill="#fbbf24" opacity="0.16"/><circle cx="185" cy="93" r="8" fill="none" stroke="#fbbf24" stroke-width="2.5"/><circle cx="185" cy="93" r="3" fill="#fbbf24"/><text x="185" y="79" fill="#fbbf24" font-size="10" font-weight="bold" text-anchor="middle">P1</text><circle cx="737" cy="783" r="13" fill="#fbbf24" opacity="0.16"/><circle cx="737" cy="783" r="8" fill="none" stroke="#fbbf24" stroke-width="2.5"/><circle cx="737" cy="783" r="3" fill="#fbbf24"/><text x="737" y="769" fill="#fbbf24" font-size="10" font-weight="bold" text-anchor="middle">P2</text><circle cx="93" cy="691" r="13" fill="#fbbf24" opacity="0.16"/><circle cx="93" cy="691" r="8" fill="none" stroke="#fbbf24" stroke-width="2.5"/><circle cx="93" cy="691" r="3" fill="#fbbf24"/><text x="93" y="677" fill="#fbbf24" font-size="10" font-weight="bold" text-anchor="middle">P3</text><g stroke="#dbeafe" stroke-width="1.5" fill="#dbeafe"><line x1="802" y1="52" x2="802" y2="26"/><path d="M 802 22 L 797 32 L 807 32 Z"/></g><text x="802" y="64" fill="#dbeafe" font-size="10" text-anchor="middle">N</text><line x1="70" y1="48" x2="162" y2="48" stroke="#dbeafe" stroke-width="2"/><line x1="70" y1="44" x2="70" y2="52" stroke="#dbeafe" stroke-width="2"/><line x1="162" y1="44" x2="162" y2="52" stroke="#dbeafe" stroke-width="2"/><text x="116" y="40" fill="#dbeafe" font-size="9" text-anchor="middle">2 tiles ≈ 4 m</text><line x1="30" y1="880" x2="846" y2="880" stroke="#dbeafe" stroke-width="1"/><text x="46" y="914" fill="#dbeafe" font-size="22" font-weight="bold" letter-spacing="3">ECHO ROOM — MAZE ROOM 01</text><text x="46" y="936" fill="#7dd3fc" font-size="12">Top-down blueprint  ·  16×16 grid  ·  guaranteed solvable (single solution)</text><text x="46" y="956" fill="#dbeafe" font-size="11" opacity="0.85">OBJECTIVE: Navigate by echo. Find &amp; press P1–P3 to unlock the EXIT door.</text><circle cx="516" cy="900" r="5" fill="#34d399"/><text x="530" y="904" fill="#dbeafe" font-size="11">S  Player spawn / entry</text><circle cx="516" cy="918" r="5" fill="#fbbf24"/><text x="530" y="922" fill="#dbeafe" font-size="11">P  Echo button (press all 3)</text><circle cx="516" cy="936" r="5" fill="#fb7185"/><text x="530" y="940" fill="#dbeafe" font-size="11">E  Exit door (locked)</text><circle cx="516" cy="954" r="5" fill="#7dd3fc"/><text x="530" y="958" fill="#dbeafe" font-size="11">· ·  Intended solution path</text></svg>